<svg width="84" height="208" viewBox="0 0 84 208" fill="#222831" xmlns="http://www.w3.org/2000/svg">
<path d="M40.5 204L39.7611 202.695L39.7611 202.695L40.5 204ZM81.9619 16.9997C82.79 17.0207 83.4785 16.3664 83.4995 15.5383L83.8425 2.04263C83.8636 1.21447 83.2093 0.526046 82.3811 0.504996C81.553 0.483946 80.8646 1.13824 80.8435 1.9664L80.5386 13.9625L68.5425 13.6576C67.7143 13.6366 67.0259 14.2909 67.0048 15.119C66.9838 15.9472 67.6381 16.6356 68.4662 16.6566L81.9619 16.9997ZM1.5 197C0.754585 198.302 0.754971 198.302 0.755453 198.302C0.755744 198.303 0.756325 198.303 0.756906 198.303C0.758069 198.304 0.759621 198.305 0.761559 198.306C0.765436 198.308 0.770859 198.311 0.77781 198.315C0.791712 198.323 0.811729 198.334 0.837716 198.349C0.889689 198.378 0.965552 198.421 1.06416 198.475C1.26135 198.584 1.54958 198.742 1.91964 198.938C2.6596 199.331 3.72771 199.882 5.05022 200.518C7.69219 201.788 11.3644 203.404 15.4736 204.781C19.5752 206.155 24.1614 207.307 28.6208 207.618C33.0688 207.928 37.5204 207.41 41.2389 205.306L39.7611 202.695C36.7464 204.401 32.9564 204.913 28.8294 204.626C24.7138 204.339 20.3917 203.265 16.4266 201.936C12.4691 200.61 8.91625 199.047 6.34985 197.814C5.06818 197.198 4.03627 196.666 3.32725 196.289C2.97283 196.101 2.69934 195.951 2.51593 195.85C2.42423 195.799 2.35507 195.76 2.3096 195.735C2.28686 195.722 2.27005 195.713 2.25931 195.706C2.25393 195.703 2.25008 195.701 2.24776 195.7C2.2466 195.699 2.24582 195.699 2.24543 195.699C2.24523 195.698 2.24523 195.698 2.24513 195.698C2.24522 195.698 2.24541 195.698 1.5 197ZM41.2389 205.306C51.1254 199.71 54.5642 188.122 53.9424 176.959C53.3212 165.807 48.6278 154.422 41.4209 148.816L39.5791 151.184C45.8722 156.079 50.3551 166.5 50.947 177.126C51.5383 187.741 48.2272 197.903 39.7611 202.695L41.2389 205.306ZM41.4209 148.816C40.0506 147.75 38.7362 145.722 37.5691 142.749C36.4163 139.812 35.4713 136.121 34.7352 131.928C33.2638 123.547 32.6571 113.333 32.8123 103.524C32.9676 93.7066 33.8847 84.3852 35.4219 77.7775C36.1958 74.4512 37.0983 71.9421 38.0598 70.405C38.5399 69.6375 38.9679 69.222 39.2979 69.0283C39.5733 68.8668 39.7881 68.8477 40.0452 68.9295L40.9548 66.0708C39.8369 65.7151 38.7431 65.8757 37.7799 66.4407C36.8715 66.9737 36.131 67.8316 35.5164 68.814C34.2884 70.777 33.2964 73.6741 32.5 77.0978C30.8965 83.9901 29.9699 93.5437 29.8127 103.476C29.6554 113.417 30.2674 123.829 31.7804 132.447C32.5365 136.754 33.5251 140.657 34.7766 143.845C36.0138 146.997 37.5744 149.625 39.5791 151.184L41.4209 148.816ZM40.0452 68.9295C41.7064 69.4581 43.2723 69.4207 44.6405 68.658C45.9574 67.9239 46.8516 66.6481 47.495 65.2046C48.7642 62.3575 49.3711 58.1158 49.8668 53.4072C50.8816 43.7663 51.4919 31.5532 55.3974 21.5455L52.6026 20.4548C48.5081 30.9471 47.8684 43.734 46.8832 53.0931C46.3789 57.8845 45.7983 61.6428 44.755 63.9832C44.2422 65.1335 43.6988 65.7483 43.1798 66.0376C42.7121 66.2984 42.0436 66.4172 40.9548 66.0708L40.0452 68.9295ZM55.3974 21.5455C57.3901 16.439 59.145 12.6624 60.8661 10.0815C62.5969 7.48599 64.133 6.34198 65.6041 6.053C67.0753 5.76403 68.93 6.24199 71.5139 7.98994C74.0834 9.72807 77.1364 12.5602 80.9127 16.5335L83.0873 14.4668C79.2836 10.4647 76.0466 7.43419 73.1948 5.50507C70.3576 3.58576 67.6597 2.5919 65.0259 3.10926C62.392 3.62662 60.2706 5.56712 58.3702 8.41707C56.46 11.2816 54.6099 15.3113 52.6026 20.4548L55.3974 21.5455Z" />
</svg>
