<svg width="68" height="27" viewBox="0 0 68 27" fill="#222831" xmlns="http://www.w3.org/2000/svg">
<path d="M11.5 19.5L11.3141 19.9642L11.5 19.5ZM31.5 14L31.313 14.4637L31.5 14ZM41.5 25L41.725 24.5535L41.725 24.5535L41.5 25ZM67.4864 19.616C67.5504 19.3474 67.3846 19.0777 67.116 19.0136L62.7388 17.9696C62.4702 17.9055 62.2005 18.0714 62.1364 18.34C62.0724 18.6086 62.2382 18.8783 62.5068 18.9423L66.3976 19.8704L65.4696 23.7612C65.4055 24.0298 65.5714 24.2995 65.84 24.3636C66.1086 24.4276 66.3783 24.2618 66.4423 23.9932L67.4864 19.616ZM1 0.5C0.506745 0.581849 0.506773 0.582018 0.506811 0.582248C0.506837 0.582405 0.506885 0.582695 0.506938 0.583009C0.507043 0.583637 0.507188 0.584505 0.507374 0.585612C0.507745 0.587827 0.508279 0.590997 0.508976 0.59511C0.510371 0.603334 0.512421 0.615328 0.515135 0.630981C0.520563 0.662286 0.52865 0.708232 0.539475 0.767947C0.561125 0.887372 0.593736 1.0619 0.63795 1.28454C0.726366 1.72977 0.861253 2.36777 1.04777 3.14261C1.42055 4.69121 2.00085 6.7917 2.83081 8.99453C3.65985 11.1949 4.74391 13.5134 6.12985 15.4889C7.51358 17.4613 9.22288 19.1268 11.3141 19.9642L11.6859 19.0358C9.84205 18.2975 8.27132 16.8002 6.94848 14.9146C5.62784 13.0322 4.57879 10.7976 3.76659 8.64196C2.95532 6.48871 2.38626 4.43008 2.02 2.90857C1.837 2.14836 1.70494 1.52357 1.6188 1.08976C1.57573 0.872889 1.54415 0.70384 1.52344 0.589567C1.51308 0.532434 1.50544 0.489002 1.50043 0.46014C1.49793 0.44571 1.49609 0.434923 1.4949 0.427888C1.4943 0.424371 1.49387 0.421792 1.49359 0.420164C1.49346 0.419351 1.49336 0.418775 1.4933 0.418439C1.49328 0.418271 1.49326 0.418199 1.49325 0.418115C1.49325 0.418103 1.49326 0.418151 1 0.5ZM11.3141 19.9642C15.3606 21.5844 18.7147 19.2514 21.7846 17.1561C24.9563 14.9914 27.8435 13.0647 31.313 14.4637L31.687 13.5363C27.6438 11.9059 24.291 14.2348 21.2209 16.3302C18.049 18.495 15.1594 20.4267 11.6859 19.0358L11.3141 19.9642ZM31.313 14.4637C33.8233 15.476 34.955 17.4179 36.1365 19.5746C37.3042 21.7062 38.5234 24.0597 41.275 25.4465L41.725 24.5535C39.2923 23.3274 38.2036 21.2665 37.0135 19.0941C35.8372 16.9468 34.561 14.6952 31.687 13.5363L31.313 14.4637ZM41.275 25.4465C43.6673 26.6522 46.5061 26.8784 49.3754 26.5721C52.2485 26.2654 55.1945 25.4204 57.8358 24.438C60.4794 23.4548 62.8334 22.328 64.5257 21.4477C65.3723 21.0073 66.0544 20.6281 66.5257 20.3584C66.7614 20.2235 66.9445 20.116 67.0691 20.0419C67.1314 20.0049 67.1791 19.9762 67.2115 19.9566C67.2276 19.9468 67.24 19.9393 67.2484 19.9342C67.2527 19.9316 67.2559 19.9296 67.2581 19.9282C67.2593 19.9275 67.2601 19.927 67.2608 19.9266C67.2611 19.9264 67.2613 19.9263 67.2615 19.9262C67.2617 19.926 67.2619 19.9259 67 19.5C66.7381 19.0741 66.7382 19.074 66.7381 19.0741C66.738 19.0741 66.7379 19.0742 66.7377 19.0743C66.7374 19.0745 66.7368 19.0749 66.7359 19.0754C66.7341 19.0765 66.7314 19.0782 66.7277 19.0804C66.7203 19.0849 66.709 19.0918 66.6939 19.101C66.6636 19.1193 66.6181 19.1467 66.5581 19.1824C66.4379 19.2538 66.2597 19.3585 66.0291 19.4904C65.5679 19.7543 64.8975 20.1271 64.0642 20.5606C62.3966 21.428 60.0814 22.5359 57.4872 23.5007C54.8906 24.4665 52.0302 25.283 49.2692 25.5778C46.5044 25.8729 43.8814 25.6403 41.725 24.5535L41.275 25.4465Z" />
</svg>
