<svg width="70" height="91" viewBox="0 0 70 91" fill="#222831" xmlns="http://www.w3.org/2000/svg">
<path d="M0 11.9295L11.3212 9.65722L3.69277 0.988888L0 11.9295ZM64.1487 90C64.6534 89.1367 64.6537 89.1369 64.6539 89.137C64.6538 89.1369 64.6539 89.137 64.6537 89.1369C64.6534 89.1367 64.6526 89.1362 64.6514 89.1355C64.6489 89.1341 64.6446 89.1315 64.6386 89.1279C64.6265 89.1207 64.6073 89.1092 64.5815 89.0935C64.5297 89.0621 64.4512 89.0137 64.3486 88.9488C64.1434 88.8188 63.8424 88.6227 63.4675 88.3629C62.7173 87.8429 61.6745 87.07 60.515 86.065C58.1881 84.0482 55.4325 81.132 53.6064 77.4879C51.7898 73.8629 50.8944 69.5256 52.2472 64.5898C53.6055 59.6343 57.2626 53.9572 64.7857 47.7398L63.5117 46.1982C55.7863 52.5827 51.8192 58.5855 50.3184 64.0611C48.8122 69.5565 49.8228 74.4018 51.8183 78.384C53.8043 82.3471 56.7669 85.463 59.2051 87.5764C60.4283 88.6365 61.5298 89.4533 62.3282 90.0067C62.7277 90.2835 63.052 90.495 63.2787 90.6385C63.392 90.7103 63.481 90.7651 63.5428 90.8027C63.5737 90.8214 63.5979 90.8359 63.6148 90.846C63.6233 90.8511 63.6301 90.8551 63.6349 90.858C63.6374 90.8594 63.6394 90.8606 63.6409 90.8615C63.6416 90.8619 63.6424 90.8624 63.6428 90.8626C63.6435 90.863 63.644 90.8633 64.1487 90ZM64.7857 47.7398C66.7117 46.1482 68.0796 44.8152 68.9196 43.7088C69.3394 43.1559 69.6596 42.618 69.8383 42.0976C70.0188 41.5722 70.0765 40.9961 69.8634 40.443C69.6478 39.8833 69.218 39.5105 68.7498 39.2723C68.2921 39.0395 67.7488 38.9077 67.1781 38.8345C66.0362 38.6881 64.5522 38.7497 62.8518 38.9446C56.0593 39.7231 44.6585 42.7858 33.929 45.5393C28.5388 46.9227 23.3012 48.2332 18.8408 49.1596C14.3436 50.0937 10.7567 50.6098 8.61106 50.4664C8.08484 50.4313 7.69122 50.3586 7.41366 50.265C7.13098 50.1696 7.04106 50.0774 7.02283 50.0539C7.01665 50.046 7.01589 50.0433 7.01465 50.0382C7.01279 50.0307 7.00624 49.9986 7.01511 49.9303C7.03456 49.7806 7.12062 49.5152 7.37213 49.1114C7.87627 48.302 8.88362 47.1887 10.5539 45.7212C12.2098 44.2663 14.4645 42.5084 17.4072 40.4059L16.2446 38.7786C13.272 40.9024 10.9587 42.7032 9.2338 44.2187C7.52327 45.7216 6.33701 46.9904 5.67451 48.054C5.04478 49.065 4.66691 50.2833 5.4446 51.2824C5.78991 51.7261 6.28024 51.9934 6.77446 52.1601C7.2738 52.3285 7.85375 52.4203 8.47774 52.462C10.9329 52.626 14.7731 52.0471 19.2475 51.1178C23.7587 50.1808 29.0373 48.8595 34.4262 47.4766C45.2548 44.6976 56.4639 41.6898 63.0795 40.9315C64.7311 40.7422 66.024 40.7029 66.9238 40.8183C67.3739 40.876 67.6675 40.9657 67.843 41.0549C68.0078 41.1388 68.0074 41.1887 67.9971 41.162C67.9894 41.142 68.0287 41.2094 67.9468 41.4479C67.8631 41.6915 67.677 42.0379 67.3266 42.4995C66.6261 43.4221 65.3979 44.6394 63.5117 46.1982L64.7857 47.7398ZM17.4072 40.4059C27.9487 32.8745 33.9469 26.1684 36.6075 20.4632C39.2951 14.6998 38.5903 9.88825 35.632 6.46591C32.7407 3.12098 27.8612 1.29863 22.5582 1.0339C17.2321 0.76803 11.3301 2.06039 6.24298 5.12475L7.27497 6.83793C12.0016 3.99068 17.5057 2.78418 22.4585 3.03142C27.4343 3.27981 31.7062 4.98253 34.119 7.77382C36.4649 10.4877 37.2172 14.4235 34.7949 19.6179C32.3455 24.8704 26.6667 31.3324 16.2446 38.7786L17.4072 40.4059Z" />
</svg>
