<svg width="46" height="97" viewBox="0 0 46 97" fill="none" xmlns="http://www.w3.org/2000/svg">
<path d="M8.43297 0L6.86333 11.4398L17.5553 7.07926L8.43297 0ZM30.3008 96.0944C31.0662 95.4508 31.0667 95.4514 31.0671 95.4519C31.0672 95.452 31.0677 95.4525 31.0679 95.4528C31.0683 95.4532 31.0685 95.4535 31.0686 95.4537C31.0688 95.4539 31.0684 95.4534 31.0674 95.4522C31.0654 95.4498 31.0611 95.4445 31.0546 95.4363C31.0416 95.42 31.0199 95.3922 30.9908 95.3533C30.9324 95.2753 30.8443 95.1528 30.7364 94.9874C30.5203 94.6565 30.2257 94.1557 29.9303 93.4991C29.3399 92.1866 28.7483 90.2565 28.7689 87.8115C28.8097 82.9619 31.2683 75.8246 41.5938 67.2912L40.3197 65.7495C29.6856 74.5381 26.8162 82.1878 26.769 87.7947C26.7455 90.578 27.4199 92.7935 28.1064 94.3196C28.4495 95.0823 28.7962 95.674 29.0617 96.0808C29.1945 96.2843 29.3074 96.4419 29.3897 96.5519C29.4309 96.6069 29.4645 96.6501 29.4893 96.6812C29.5016 96.6967 29.5118 96.7092 29.5195 96.7187C29.5234 96.7235 29.5267 96.7274 29.5294 96.7307C29.5307 96.7323 29.5319 96.7337 29.5329 96.7349C29.5334 96.7355 29.5341 96.7363 29.5343 96.7366C29.5349 96.7373 29.5355 96.738 30.3008 96.0944ZM41.5938 67.2912C42.9237 66.1922 43.8856 65.258 44.4847 64.4688C44.7841 64.0745 45.0252 63.6749 45.1629 63.274C45.3023 62.868 45.3572 62.3926 45.1762 61.9228C44.9926 61.4464 44.63 61.1398 44.2608 60.9519C43.9021 60.7694 43.4896 60.6723 43.0786 60.6196C42.2559 60.5141 41.2061 60.5599 40.0298 60.6947C35.3339 61.2329 27.4685 63.3464 20.1099 65.2349C16.4051 66.1857 12.8119 67.0847 9.75429 67.7197C6.65992 68.3624 4.2344 68.7073 2.80812 68.612C2.46175 68.5889 2.22037 68.5419 2.06428 68.4893C1.90308 68.4349 1.90389 68.3989 1.94251 68.4485C2.10679 68.6595 1.84676 68.7272 2.20124 68.1581C2.52296 67.6416 3.18731 66.9007 4.32893 65.8977C5.45624 64.9072 6.99662 63.7059 9.01444 62.2642L7.85178 60.6369C5.80414 62.0998 4.20508 63.3442 3.00886 64.3952C1.82695 65.4337 0.983697 66.33 0.503621 67.1007C0.0563047 67.8189 -0.299718 68.8239 0.364275 69.677C0.652747 70.0476 1.05234 70.2587 1.42509 70.3844C1.80294 70.5118 2.23066 70.5779 2.6748 70.6076C4.41055 70.7235 7.08944 70.3159 10.161 69.6779C13.2694 69.0323 16.9036 68.1225 20.607 67.1721C28.0648 65.2582 35.7385 63.1997 40.2576 62.6817C41.385 62.5525 42.2438 62.5289 42.8242 62.6033C43.1147 62.6406 43.2775 62.6956 43.354 62.7345C43.4198 62.768 43.3523 62.7518 43.3099 62.6418C43.27 62.5384 43.3122 62.5053 43.2713 62.6243C43.2287 62.7484 43.1218 62.9565 42.8918 63.2595C42.4322 63.8649 41.6099 64.6833 40.3197 65.7495L41.5938 67.2912ZM9.01444 62.2642C16.3583 57.0173 21.0105 52.4153 23.6309 48.0623C26.2777 43.6656 26.8304 39.5567 26.0519 35.4026C25.2847 31.3088 23.2291 27.2071 20.7693 22.7937C18.2877 18.3411 15.3792 13.5455 12.7385 7.9125L10.9276 8.76142C13.6079 14.479 16.5833 19.3912 19.0223 23.7674C21.4832 28.1828 23.3851 32.0307 24.0861 35.771C24.7758 39.4511 24.3073 43.0608 21.9174 47.0308C19.5013 51.0445 15.1014 55.4573 7.85178 60.6369L9.01444 62.2642Z" fill="#222831"/>
</svg>
