<svg width="100" height="100" viewBox="0 0 100 100" fill="none" xmlns="http://www.w3.org/2000/svg">
<g clip-path="url(#clip0_1019_73)">
<path d="M96.0865 64.0594C90.8641 81.4389 79.5317 92.2276 62.5377 96.6507C32.4625 104.479 4.06781 81.1483 3.85766 51.4962C3.68571 27.2336 21.7686 7.01743 44.8535 4.16895C69.9041 1.07792 91.6402 16.7565 96.9669 40.757C98.6699 48.4302 98.8373 56.1057 96.0865 64.0594ZM26.1875 16.9654C23.0226 19.9078 19.8577 22.8502 15.9421 26.4905C35.289 28.5679 50.3751 35.6788 60.7191 50.7977C65.1775 44.2023 69.5166 37.7834 74.1136 30.9829C68.3904 30.9829 62.7761 31.1232 57.1779 30.8835C55.7897 30.8241 53.4318 29.6657 53.3169 28.7794C53.107 27.1609 54.0701 25.2835 54.874 23.6795C55.368 22.6939 56.5093 22.0474 57.3009 21.1937C63.0287 15.0167 68.874 19.5795 74.357 21.4459C76.432 22.1522 77.6477 25.3832 79.4768 27.7504C80.2538 27.2072 81.9619 26.0131 83.6778 24.8136C70.1344 7.09463 43.6385 3.43298 26.8153 16.7996C26.8153 16.7996 26.8358 16.7217 26.1875 16.9654ZM27.4996 60.8861C27.504 59.0138 27.5083 57.1415 27.5127 55.2692C28.9517 56.2818 30.5964 57.1014 31.775 58.3582C33.0988 59.7699 33.9615 61.6047 35.0938 63.2067C42.7329 74.0145 52.6909 81.9962 65.4592 88.3506C64.9142 81.9857 65.0126 76.4602 63.8902 71.1949C59.2578 49.4641 40.8729 33.8171 18.889 31.9267C14.1585 31.5199 12.2662 33.5357 10.9096 37.7143C3.65361 60.0643 15.6852 83.6482 38.2131 91.1758C45.2407 93.524 52.1941 93.2742 59.4189 91.9575C46.5847 83.9801 35.7456 74.3029 27.4996 60.8861ZM82.9941 47.4576C83.8332 45.9973 84.6723 44.537 85.5114 43.0767C86.3133 44.789 87.4497 46.4351 87.8061 48.2355C88.0675 49.5558 87.1701 51.0647 87.0218 52.5133C86.088 61.6357 81.7939 69.4208 75.057 74.951C70.39 78.7821 69.2588 82.3563 70.392 87.5896C88.4468 81.4329 101.664 51.0718 86.61 29.2121C75.6836 35.4155 68.8829 44.8517 64.8363 56.5115C64.6083 57.1686 64.7244 58.0589 64.9601 58.7445C66.5167 63.271 68.1498 67.7712 69.8109 72.4279C77.9671 66.3491 81.2643 57.7683 82.9941 47.4576ZM60.8 23.1129C59.8351 24.4857 58.8702 25.8585 57.0716 28.4173C63.6642 27.8974 68.7577 27.4956 73.8511 27.0939C73.8618 26.2559 73.8726 25.4178 73.8833 24.5798C69.7686 24.0086 65.6538 23.4374 60.8 23.1129Z" fill="#222831"/>
<path d="M41.3168 43.6783C43.5955 45.3515 45.7785 46.6138 47.4595 48.3595C48.2153 49.1441 47.9681 50.8946 48.176 52.2069C46.8046 52.2504 45.1587 52.7966 44.1206 52.2297C42.1368 51.1464 40.5077 49.4187 38.7165 47.9771C32.0309 42.5968 23.943 41.2739 15.8245 39.9291C14.6291 39.7311 13.6047 38.5008 12.8438 37.1569C23.531 34.6651 32.5876 37.7835 41.3168 43.6783Z" fill="#222831"/>
<path d="M26.7762 16.8104C29.4513 16.2274 32.2664 15.9146 34.8582 14.9817C40.3353 13.0102 47.1068 15.1545 49.5926 20.339C51.0891 23.46 49.7031 26.3434 46.34 26.6583C41.0865 27.1502 35.6636 27.3205 30.4723 26.5501C25.7445 25.8485 24.9614 22.4057 27.1805 17.038C26.8356 16.7217 26.815 16.7996 26.7762 16.8104ZM40.1172 22.999C41.5939 22.999 43.0707 22.999 44.6214 22.999C42.4533 15.3245 37.9814 17.8945 30.5387 21.5438C30.525 22.0289 30.5112 22.514 30.4974 22.999C33.4191 22.999 36.3407 22.999 40.1172 22.999Z" fill="#222831"/>
</g>
<defs>
<clipPath id="clip0_1019_73">
<rect width="100" height="100" fill="white"/>
</clipPath>
</defs>
</svg>
