<svg width="394" height="297" viewBox="0 0 394 297" fill="#5f86709e" xmlns="http://www.w3.org/2000/svg">
<path d="M341.966 135.091L304.985 126.897H256.909L244.336 181.278L228.804 197.667L209.573 263.967L175.551 274.397L135.611 260.988L115.642 265.457L91.2336 289.296L64.6074 286.316L37.2417 296L8.39623 268.437L1 236.404L32.0638 252.793L63.8679 243.854L71.2642 203.626L89.0153 194.687L139.309 184.258L167.415 146.265L186.645 116.467L207.355 141.051L215.491 124.662L235.46 126.152L236.2 95.6087L236.94 71.7702L267.264 38.9925L286.494 1.74499L303.506 1L326.434 25.5835L329.393 46.442L357.498 59.8512L393 74.0052L391.521 92.6289L363.415 94.8637L371.551 118.702L341.966 135.091Z"  stroke="white" stroke-width="0.2" stroke-linecap="round" stroke-linejoin="round"/>
</svg>
