<svg width="929" height="668" viewBox="0 0 929 668" fill="none" xmlns="http://www.w3.org/2000/svg">
<g clip-path="url(#clip0_4045_1119)">
<path d="M692.379 636.904C659.601 636.904 624.743 634.526 588.171 629.786C528.287 622.024 466.42 608.222 404.281 588.767C342.141 569.312 283.454 545.369 229.84 517.605C178.048 490.785 133.152 461.535 96.3945 430.682C59.6165 399.813 32.8354 368.882 16.7947 338.755C0.160442 307.505 -4.14392 278.487 4.00031 252.502C12.1445 226.518 32.2471 205.139 63.7505 188.964C94.1288 173.367 133.782 163.237 181.604 158.853C229.412 154.474 282.979 156.058 340.825 163.557C400.709 171.325 462.575 185.122 524.715 204.577C586.855 224.032 645.542 247.974 699.156 275.738C750.947 302.558 795.844 331.808 832.601 362.662C869.379 393.531 896.16 424.462 912.201 454.588C928.835 485.834 933.14 514.851 924.995 540.836C916.851 566.82 896.749 588.199 865.245 604.374C834.867 619.971 795.214 630.101 747.391 634.485C729.807 636.094 711.444 636.899 692.374 636.899L692.379 636.904ZM236.957 157.213C217.851 157.213 199.385 158.018 181.677 159.637C133.952 164.011 94.3972 174.115 64.1118 189.666C32.8045 205.742 12.8361 226.961 4.75383 252.74C-3.32847 278.518 0.960414 307.329 17.4915 338.384C33.4857 368.423 60.2048 399.276 96.9003 430.078C172.418 493.462 281.663 549.552 404.518 588.014C527.373 626.475 649.113 642.701 747.324 633.706C795.049 629.332 834.604 619.228 864.889 603.678C896.197 587.601 916.165 566.382 924.247 540.604C932.329 514.825 928.041 486.014 911.509 454.959C895.515 424.921 868.796 394.067 832.101 363.265C756.583 299.881 647.338 243.791 524.483 205.33C423.779 173.8 323.819 157.213 236.957 157.213Z" fill="#F2F1F4"/>
<path d="M645.81 637.92C621.258 637.92 595.68 636.481 569.229 633.608C512.581 627.45 454.41 614.937 396.327 596.411C313.801 570.086 237.385 533.27 175.339 489.944C114.897 447.739 70.7177 401.34 47.5701 355.75C38.3781 337.652 32.6132 319.806 30.4352 302.713C28.1953 285.125 29.7384 268.192 35.0234 252.394C44.3702 224.45 64.8392 200.982 95.8574 182.651C125.782 164.965 164.221 152.772 210.109 146.418C255.976 140.064 306.978 139.857 361.701 145.804C418.349 151.963 476.52 164.475 534.603 183.007C617.13 209.332 693.545 246.148 755.592 289.473C816.028 331.679 860.213 378.078 883.36 423.662C892.552 441.761 898.317 459.607 900.495 476.699C902.735 494.287 901.192 511.22 895.907 527.018C886.56 554.963 866.091 578.431 835.073 596.761C805.149 614.447 766.709 626.64 720.821 632.995C697.127 636.275 672.054 637.92 645.81 637.92ZM285.585 142.251C259.346 142.251 234.118 143.886 210.217 147.197C116.11 160.236 54.1557 197.686 35.7718 252.647C25.3154 283.903 29.5217 318.47 48.272 355.394C71.3628 400.865 115.459 447.166 175.793 489.295C237.778 532.578 314.121 569.353 396.569 595.652C511.389 632.278 626.507 645.26 720.713 632.211C814.821 619.172 876.775 581.721 895.159 526.76C905.615 495.505 901.409 460.937 882.658 424.013C859.568 378.542 815.471 332.241 755.138 290.113C693.153 246.829 616.81 210.054 534.361 183.755C448.666 156.419 362.795 142.251 285.585 142.251Z" fill="#F2F1F4"/>
<path d="M602.405 639.705C585.44 639.705 568.053 638.952 550.283 637.435C496.876 632.886 442.395 621.658 388.368 604.054C315.731 580.391 248.425 546.36 193.728 505.639C140.573 466.069 100.74 421.372 78.5212 376.376C67.9564 354.977 61.4792 333.696 59.2754 313.132C57.0045 291.928 59.2806 271.457 66.0416 252.296C76.5909 222.387 97.4263 196.835 127.965 176.343C157.435 156.569 194.662 142.318 238.609 133.983C282.54 125.653 330.972 123.657 382.567 128.051C435.975 132.601 490.455 143.829 544.482 161.432C617.119 185.096 684.425 219.127 739.123 259.847C792.277 299.417 832.111 344.114 854.329 389.111C864.894 410.51 871.371 431.791 873.575 452.355C875.846 473.558 873.57 494.029 866.809 513.19C856.259 543.1 835.424 568.652 804.886 589.143C775.416 608.918 738.189 623.169 694.242 631.504C665.438 636.966 634.698 639.705 602.405 639.705ZM330.936 126.525C298.756 126.525 267.815 129.248 238.758 134.756C148.63 151.844 87.5531 193.679 66.7848 252.559C53.5569 290.061 57.8561 332.757 79.2231 376.031C125.126 469.004 243.677 556.092 388.606 603.306C460.996 626.893 534.18 638.962 601.915 638.962C634.094 638.962 665.035 636.239 694.092 630.73C784.221 613.643 845.297 571.808 866.065 512.927C879.293 475.425 874.994 432.73 853.627 389.456C807.724 296.483 689.173 209.394 544.244 162.18C471.855 138.594 398.67 126.525 330.936 126.525Z" fill="#F2F1F4"/>
<path d="M562.179 642.175C552.022 642.175 541.746 641.871 531.336 641.262C481.16 638.322 430.38 628.378 380.405 611.698C348.364 601.006 317.516 587.782 288.717 572.391C260.775 557.459 234.727 540.475 211.301 521.907C165.181 485.354 129.735 443.009 108.801 399.447C84.3529 348.571 80.2911 297.653 97.0543 252.188C108.806 220.318 130.008 192.673 160.066 170.025C189.087 148.161 225.096 131.847 267.103 121.542C309.093 111.237 354.96 107.451 403.428 110.293C453.605 113.233 504.385 123.177 554.36 139.857C586.4 150.549 617.248 163.774 646.047 179.165C673.989 194.096 700.032 211.081 723.464 229.649C769.583 266.201 805.03 308.547 825.963 352.109C850.411 402.985 854.473 453.902 837.71 499.368C825.958 531.237 804.756 558.883 774.698 581.53C745.677 603.394 709.668 619.708 667.662 630.013C634.687 638.106 599.318 642.175 562.179 642.175ZM372.973 110.108C336.138 110.108 300.552 114.151 267.299 122.316C181.15 143.457 120.955 189.676 97.7975 252.466C81.1065 297.726 85.158 348.437 109.513 399.111C153.011 489.619 254.37 568.811 380.652 610.95C479.4 643.903 581.265 650.397 667.471 629.245C753.62 608.103 813.814 561.885 836.972 499.094C853.663 453.835 849.611 403.124 825.256 352.449C781.758 261.941 680.399 182.749 554.117 140.61C493.459 120.371 431.629 110.113 372.973 110.113V110.108Z" fill="#F2F1F4"/>
<path d="M525.092 645.27C520.88 645.27 516.648 645.208 512.395 645.089C465.455 643.759 418.37 635.099 372.447 619.347C345.041 609.95 318.694 598.19 294.137 584.398C270.277 571.003 247.987 555.623 227.884 538.685C188.484 505.495 157.455 466.141 138.143 424.874C124.796 396.352 117.07 367.267 115.181 338.43C113.225 308.603 117.565 279.555 128.078 252.09C141.033 218.255 162.601 188.526 192.185 163.717C220.751 139.765 255.548 121.393 295.608 109.112C335.663 96.8315 378.96 91.2611 424.3 92.5402C471.241 93.8709 518.326 102.531 564.249 118.283C591.655 127.68 618.002 139.44 642.559 153.231C666.418 166.626 688.709 182.006 708.812 198.944C748.212 232.135 779.24 271.488 798.553 312.755C811.9 341.278 819.626 370.362 821.515 399.199C823.471 429.026 819.131 458.08 808.617 485.54C795.663 519.374 774.095 549.104 744.511 573.912C715.944 597.865 681.148 616.237 641.088 628.517C604.79 639.648 565.828 645.27 525.092 645.27ZM411.759 93.0766C371.569 93.0766 332.422 98.6573 295.846 109.87C213.675 135.061 154.359 185.674 128.816 252.374C108.058 306.597 111.532 366.128 138.86 424.544C179.184 510.73 264.419 581.463 372.705 618.604C463.416 649.721 558.649 652.975 640.861 627.77C723.031 602.579 782.347 551.966 807.89 485.266C828.648 431.043 825.174 371.512 797.846 313.096C757.522 226.91 672.292 156.176 564.001 119.036C513.65 101.767 461.894 93.0766 411.759 93.0766Z" fill="#F2F1F4"/>
<path d="M491.059 648.922C448.165 648.922 405.596 641.546 364.488 626.991C318.704 610.78 277.905 586.838 243.228 555.84C226.604 540.98 211.601 524.599 198.636 507.166C185.769 489.857 174.848 471.428 166.178 452.381C151.577 420.315 143.448 387.006 142.003 353.378C140.511 318.568 146.261 284.455 159.102 251.992C173.259 216.192 195.193 184.374 224.302 157.409C252.415 131.373 285.993 110.943 324.113 96.682C362.228 82.426 402.959 75.0607 445.172 74.7925C488.866 74.5191 532.266 81.8895 574.138 96.7181C619.922 112.929 660.721 136.871 695.398 167.869C712.022 182.729 727.025 199.11 739.99 216.543C752.857 233.852 763.778 252.281 772.448 271.328C787.049 303.394 795.178 336.703 796.623 370.331C798.114 405.141 792.365 439.254 779.524 471.717C765.367 507.517 743.432 539.335 714.324 566.3C686.211 592.336 652.633 612.766 614.513 627.027C576.398 641.283 535.667 648.648 493.449 648.916C492.649 648.916 491.849 648.922 491.049 648.922H491.059ZM447.84 75.6487C319.901 75.6487 203.364 142.204 159.835 252.286C134.69 315.876 137.198 386.826 166.895 452.061C202.811 530.954 274.927 594.445 364.751 626.253C535.404 686.681 721.147 617.227 778.796 471.433C803.941 407.843 801.433 336.894 771.736 271.658C735.82 192.766 663.704 129.274 573.88 97.4659C532.069 82.6632 489.351 75.6538 447.84 75.6538V75.6487Z" fill="#F2F1F4"/>
<path d="M460.154 653.073C424.656 653.073 389.865 646.889 356.524 634.635C319.003 620.843 285.544 600.171 257.075 573.19C229.577 547.133 207.838 516.29 192.458 481.517C176.83 446.186 168.562 408.596 167.87 369.795C167.153 329.621 174.642 289.953 190.12 251.889C205.479 214.124 227.78 180.217 256.414 151.096C284.068 122.976 316.433 100.483 352.607 84.2518C388.781 68.0204 426.943 58.8654 466.033 57.0395C506.506 55.1518 546.2 61.2379 584.026 75.1432C621.547 88.935 655.007 109.607 683.476 136.587C710.974 162.644 732.713 193.488 748.093 228.261C763.715 263.592 771.989 301.181 772.68 339.983C773.398 380.157 765.909 419.825 750.431 457.889C735.071 495.654 712.77 529.561 684.136 558.682C656.478 586.802 624.118 609.295 587.943 625.526C551.769 641.757 513.608 650.912 474.518 652.738C469.723 652.96 464.928 653.073 460.154 653.073ZM480.541 57.5605C357.779 57.5605 239.687 132.09 190.848 252.188C160.278 327.352 161.109 408.684 193.175 481.202C224.694 552.467 282.803 606.695 356.793 633.897C390.603 646.327 425.497 652.222 460.01 652.222C582.772 652.222 700.863 577.693 749.703 457.595C780.272 382.431 779.441 301.099 747.37 228.581C715.851 157.316 657.742 103.088 583.753 75.8859C549.942 63.4558 515.053 57.5605 480.541 57.5605Z" fill="#F2F1F4"/>
<path d="M432.171 657.669C403.238 657.669 375.208 652.516 348.566 642.278C318.626 630.771 291.912 613.354 269.162 590.515C247.186 568.45 229.468 541.914 216.503 511.648C183.111 433.694 184.799 338.982 221.143 251.791C237.7 212.061 260.378 176.06 288.537 144.788C315.736 114.579 346.883 90.0336 381.117 71.8268C415.351 53.6199 450.947 42.6701 486.91 39.2866C524.147 35.7845 560.156 40.5915 593.925 53.5684C623.865 65.0753 650.579 82.493 673.329 105.331C695.305 127.396 713.023 153.933 725.988 184.199C759.38 262.153 757.687 356.864 721.348 444.056C704.791 483.786 682.113 519.787 653.954 551.059C626.755 581.267 595.608 605.813 561.379 624.02C527.146 642.227 491.549 653.177 455.587 656.56C447.726 657.298 439.918 657.669 432.171 657.669ZM510.408 39.0338C394.577 39.0338 276.135 121.898 221.866 252.095C185.609 339.091 183.916 433.581 217.226 511.339C243.553 572.798 290.297 619.043 348.85 641.546C375.78 651.898 403.862 656.818 432.078 656.818C547.909 656.828 666.351 573.954 720.62 443.762C756.877 356.766 758.57 262.276 725.26 184.518C698.933 123.059 652.189 76.8143 593.636 54.3111C566.705 43.9595 538.624 39.0338 510.408 39.0338Z" fill="#F2F1F4"/>
<path d="M406.851 662.657C383.693 662.657 361.51 658.402 340.603 649.917C294.839 631.349 259.284 594.023 237.788 541.965C221.515 502.55 214.016 455.661 216.106 406.368C217.17 381.255 220.7 355.544 226.594 329.951C232.663 303.595 241.262 277.265 252.157 251.688C269.916 209.992 292.961 171.902 320.645 138.475C347.39 106.182 377.319 79.5789 409.602 59.4018C441.895 39.2143 474.915 26.4799 507.75 21.5388C541.757 16.4223 574.076 19.945 603.799 31.9987C649.562 50.5614 685.117 87.8931 706.613 139.95C722.886 179.366 730.385 226.255 728.295 275.547C727.232 300.66 723.702 326.372 717.808 351.964C711.738 378.321 703.14 404.651 692.245 430.228C674.485 471.923 651.441 510.013 623.757 543.441C597.012 575.733 567.083 602.337 534.8 622.514C502.507 642.701 469.486 655.436 436.651 660.377C426.561 661.893 416.621 662.657 406.851 662.657ZM537.226 20.0069C496.024 20.0069 452.511 33.5202 410.03 60.0723C343.777 101.484 287.97 169.643 252.89 252.002C210.29 352.006 204.922 460.293 238.526 541.672C259.94 593.527 295.345 630.71 340.907 649.195C399.465 672.951 468.18 663.24 534.392 621.859C600.645 580.447 656.452 512.288 691.532 429.929C734.132 329.925 739.5 221.639 705.896 140.26C684.482 88.4038 649.077 51.2216 603.515 32.7362C582.53 24.2259 560.239 20.0069 537.226 20.0069Z" fill="#F2F1F4"/>
<path d="M383.971 668C365.84 668 348.669 664.519 332.644 657.566C306.968 646.43 285.781 627.058 269.684 599.99C254.144 573.871 243.971 541.718 239.44 504.427C234.913 467.152 236.25 426.623 243.424 383.953C250.846 339.787 264.223 295.255 283.19 251.595C302.152 207.934 325.568 167.756 352.778 132.172C379.068 97.796 407.78 69.1396 438.117 46.9871C468.469 24.8243 498.92 10.2949 528.622 3.80131C559.403 -2.92954 588.026 -0.696239 613.708 10.4393C639.384 21.5749 660.571 40.9474 676.668 68.0152C692.208 94.134 702.381 126.287 706.912 163.578C711.439 200.853 710.102 241.388 702.928 284.052C695.506 328.218 682.129 372.75 663.162 416.416C644.2 460.076 620.784 500.255 593.574 535.838C567.284 570.214 538.572 598.871 508.235 621.023C477.883 643.186 447.432 657.716 417.73 664.209C406.159 666.736 394.887 668 383.971 668ZM562.097 0.753086C523.404 0.753086 481.021 16.6235 438.576 47.6163C376.302 93.087 321.372 165.636 283.908 251.904C246.438 338.173 230.924 427.819 240.219 504.329C249.504 580.767 282.442 634.929 332.959 656.839C383.476 678.754 445.559 665.803 507.771 620.379C570.045 574.908 624.975 502.359 662.439 416.091C699.904 329.822 715.423 240.176 706.128 163.666C696.843 87.2278 663.905 33.0663 613.388 11.1563C597.337 4.1933 580.114 0.753086 562.097 0.753086Z" fill="#F2F1F4"/>
</g>
<defs>
<clipPath id="clip0_4045_1119">
<rect width="929" height="668" fill="white"/>
</clipPath>
</defs>
</svg>
