<svg width="358" height="358" viewBox="0 0 358 358" fill="none" xmlns="http://www.w3.org/2000/svg">
<path d="M129.622 47.5901C178.425 96.339 178.842 178.512 178.842 178.512C178.842 178.512 100.134 181.647 51.3313 132.898C2.52841 84.1491 2.11122 1.97648 2.11122 1.97648C2.11122 1.97648 80.8192 -1.15869 129.622 47.5901Z" fill="#E55733"/>
<path d="M228.062 47.5901C179.259 96.339 178.842 178.512 178.842 178.512C178.842 178.512 257.55 181.647 306.353 132.898C355.156 84.1491 355.573 1.97648 355.573 1.97648C355.573 1.97648 276.865 -1.15869 228.062 47.5901Z" fill="#E55733"/>
<path d="M129.622 309.364C178.425 260.616 178.842 178.443 178.842 178.443C178.842 178.443 100.134 175.308 51.3313 224.057C2.52841 272.805 2.11122 354.978 2.11122 354.978C2.11122 354.978 80.8192 358.113 129.622 309.364Z" fill="#E55733"/>
<path d="M228.062 309.364C179.259 260.616 178.842 178.443 178.842 178.443C178.842 178.443 257.55 175.308 306.353 224.057C355.156 272.805 355.573 354.978 355.573 354.978C355.573 354.978 276.865 358.113 228.062 309.364Z" fill="#E55733"/>
</svg>
