<svg width="32" height="33" viewBox="0 0 32 33" fill="none" xmlns="http://www.w3.org/2000/svg">
<path d="M20.2813 14.7265C27.039 14.9418 32 15.6542 32 16.4999C32 17.3456 27.039 18.058 20.2813 18.2733C24.9075 23.2039 27.9117 27.2156 27.3137 27.8136C26.7157 28.4116 22.704 25.4074 17.7734 20.7812C17.5581 27.5389 16.8457 32.4999 16 32.4999C15.1543 32.4999 14.4419 27.5389 14.2266 20.7812C9.29596 25.4074 5.28427 28.4116 4.68629 27.8136C4.08831 27.2156 7.09247 23.2039 11.7187 18.2733C4.96095 18.058 0 17.3455 0 16.4999C0 15.6542 4.96095 14.9418 11.7187 14.7265C7.09247 9.79583 4.0883 5.78415 4.68628 5.18617C5.28427 4.58819 9.29595 7.59236 14.2266 12.2186C14.4419 5.46084 15.1543 0.499878 16 0.499878C16.8457 0.499878 17.5581 5.46083 17.7734 12.2185C22.704 7.59235 26.7157 4.58818 27.3137 5.18616C27.9117 5.78414 24.9075 9.79583 20.2813 14.7265Z" fill="#F7D667"/>
</svg>
